<svg width="330" height="331" viewBox="0 0 330 331" fill="none" xmlns="http://www.w3.org/2000/svg">
<path fill-rule="evenodd" clip-rule="evenodd" d="M305.418 158.856C301.095 143.298 314.839 142.698 315.142 122.651C315.265 114.452 310.787 106.102 300.013 102.271C294.717 100.39 289.44 99.0957 284.728 96.1025C273.991 89.2817 274.185 76.3029 271.255 65.239C264.823 40.9391 240.067 21.634 215.008 22.262C196.943 22.7139 180.611 23.2692 164.142 38.6488C152.873 49.1727 145.549 62.1214 135.087 72.9705C124.007 84.4592 110.506 89.9715 95.3465 93.663C81.0092 97.1538 65.4127 101.307 54.4392 111.776C44.1265 121.613 45.6298 131.902 50.0511 143.981C54.9275 157.3 44.3545 166.362 33.3302 171.549C24.0479 175.916 8.50996 184.798 8.00167 201.176C6.42986 251.907 38.5555 252.11 50.5332 256.931C160.718 301.287 203.003 267.075 249.723 267.767C296.297 268.456 322.994 211.962 321.376 195.325C319.323 174.201 308.438 169.72 305.418 158.856Z" fill="#DEEDF2"/>
<path fill-rule="evenodd" clip-rule="evenodd" d="M218.997 226.456C181.95 224.467 142.947 233.456 123.174 240.28C111.328 244.367 108.074 251.872 95.6824 253.903C70.7953 257.982 12.358 259.189 11.2025 265.199C8.92765 277.031 28.643 283.355 74.1148 288.826C73.133 289.636 79.6532 304.442 116.313 307.784C130.819 309.107 155.15 307.789 164.482 304.898C178.825 300.455 193.723 298.066 208.73 297.725C262.108 296.513 303.966 290.433 304.456 281.242C304.621 278.17 301.539 273.911 296.711 271.434C293.703 269.891 298.12 268.59 299.145 268.22C311.742 263.673 318.807 258.596 319.065 254.565C319.872 241.915 273.378 229.377 218.997 226.456Z" fill="#CEDEE7"/>
<path fill-rule="evenodd" clip-rule="evenodd" d="M276.52 260.936L296.183 270.418H133.476L155.743 260.936H276.52Z" fill="#34466B"/>
<path fill-rule="evenodd" clip-rule="evenodd" d="M169.659 264.428L163.446 264.423L167.474 262.655H173.186L169.659 264.428Z" fill="#9BC3D3"/>
<path fill-rule="evenodd" clip-rule="evenodd" d="M162.081 264.421L155.867 264.415L160.507 262.655H166.22L162.081 264.421Z" fill="#9BC3D3"/>
<path fill-rule="evenodd" clip-rule="evenodd" d="M184.817 264.441L178.603 264.436L181.41 262.655H187.122L184.817 264.441Z" fill="#9BC3D3"/>
<path fill-rule="evenodd" clip-rule="evenodd" d="M177.24 264.435L171.026 264.429L174.443 262.655H180.156L177.24 264.435Z" fill="#9BC3D3"/>
<path fill-rule="evenodd" clip-rule="evenodd" d="M200.096 264.455L193.882 264.448L195.456 262.655H201.168L200.096 264.455Z" fill="#9BC3D3"/>
<path fill-rule="evenodd" clip-rule="evenodd" d="M192.518 264.447L186.304 264.443L188.49 262.655H194.202L192.518 264.447Z" fill="#9BC3D3"/>
<path fill-rule="evenodd" clip-rule="evenodd" d="M215.253 264.468L209.04 264.463L209.391 262.655H215.103L215.253 264.468Z" fill="#9BC3D3"/>
<path fill-rule="evenodd" clip-rule="evenodd" d="M207.676 264.462L201.463 264.456L202.425 262.655H208.137L207.676 264.462Z" fill="#9BC3D3"/>
<path fill-rule="evenodd" clip-rule="evenodd" d="M230.466 264.482L224.253 264.477L223.376 262.655H229.089L230.466 264.482Z" fill="#9BC3D3"/>
<path fill-rule="evenodd" clip-rule="evenodd" d="M222.888 264.476L216.675 264.47L216.409 262.655H222.122L222.888 264.476Z" fill="#9BC3D3"/>
<path fill-rule="evenodd" clip-rule="evenodd" d="M245.623 264.495L239.41 264.489L237.311 262.655H243.024L245.623 264.495Z" fill="#9BC3D3"/>
<path fill-rule="evenodd" clip-rule="evenodd" d="M238.047 264.488L231.833 264.483L230.345 262.655H236.057L238.047 264.488Z" fill="#9BC3D3"/>
<path fill-rule="evenodd" clip-rule="evenodd" d="M260.902 264.509L254.689 264.504L251.357 262.655H257.07L260.902 264.509Z" fill="#9BC3D3"/>
<path fill-rule="evenodd" clip-rule="evenodd" d="M253.325 264.502L247.112 264.496L244.391 262.655H250.104L253.325 264.502Z" fill="#9BC3D3"/>
<path fill-rule="evenodd" clip-rule="evenodd" d="M276.061 264.522L269.848 264.517L265.292 262.655H271.005L276.061 264.522Z" fill="#9BC3D3"/>
<path fill-rule="evenodd" clip-rule="evenodd" d="M268.483 264.516L262.269 264.511L258.326 262.655H264.038L268.483 264.516Z" fill="#9BC3D3"/>
<path fill-rule="evenodd" clip-rule="evenodd" d="M165.643 266.559L158.827 266.547L162.84 264.78L169.155 264.786L165.643 266.559Z" fill="#9BC3D3"/>
<path fill-rule="evenodd" clip-rule="evenodd" d="M157.331 266.544L150.515 266.531L155.139 264.77L161.454 264.777L157.331 266.544Z" fill="#9BC3D3"/>
<path fill-rule="evenodd" clip-rule="evenodd" d="M182.272 266.588L175.455 266.576L178.245 264.795L184.56 264.801L182.272 266.588Z" fill="#9BC3D3"/>
<path fill-rule="evenodd" clip-rule="evenodd" d="M173.959 266.573L167.143 266.561L170.544 264.786L176.859 264.794L173.959 266.573Z" fill="#9BC3D3"/>
<path fill-rule="evenodd" clip-rule="evenodd" d="M199.031 266.618L192.215 266.606L193.773 264.811L200.087 264.818L199.031 266.618Z" fill="#9BC3D3"/>
<path fill-rule="evenodd" clip-rule="evenodd" d="M190.719 266.604L183.903 266.591L186.071 264.804L192.386 264.81L190.719 266.604Z" fill="#9BC3D3"/>
<path fill-rule="evenodd" clip-rule="evenodd" d="M215.659 266.648L208.843 266.636L209.177 264.827L215.492 264.834L215.659 266.648Z" fill="#9BC3D3"/>
<path fill-rule="evenodd" clip-rule="evenodd" d="M207.347 266.634L200.531 266.62L201.476 264.819L207.791 264.826L207.347 266.634Z" fill="#9BC3D3"/>
<path fill-rule="evenodd" clip-rule="evenodd" d="M232.347 266.677L225.531 266.665L224.637 264.844L230.952 264.852L232.347 266.677Z" fill="#9BC3D3"/>
<path fill-rule="evenodd" clip-rule="evenodd" d="M224.034 266.663L217.218 266.651L216.936 264.835L223.251 264.843L224.034 266.663Z" fill="#9BC3D3"/>
<path fill-rule="evenodd" clip-rule="evenodd" d="M248.975 266.708L242.159 266.695L240.042 264.859L246.358 264.866L248.975 266.708Z" fill="#9BC3D3"/>
<path fill-rule="evenodd" clip-rule="evenodd" d="M240.662 266.693L233.845 266.68L232.341 264.853L238.656 264.859L240.662 266.693Z" fill="#9BC3D3"/>
<path fill-rule="evenodd" clip-rule="evenodd" d="M265.734 266.737L258.919 266.725L255.569 264.876L261.884 264.884L265.734 266.737Z" fill="#9BC3D3"/>
<path fill-rule="evenodd" clip-rule="evenodd" d="M257.422 266.722L250.607 266.71L247.869 264.868L254.183 264.875L257.422 266.722Z" fill="#9BC3D3"/>
<path fill-rule="evenodd" clip-rule="evenodd" d="M282.362 266.768L275.546 266.755L270.975 264.893L277.29 264.899L282.362 266.768Z" fill="#9BC3D3"/>
<path fill-rule="evenodd" clip-rule="evenodd" d="M274.049 266.751L267.234 266.74L263.274 264.885L269.588 264.892L274.049 266.751Z" fill="#9BC3D3"/>
<path fill-rule="evenodd" clip-rule="evenodd" d="M161.532 268.635L154.128 268.616L158.141 266.849L165.043 266.862L161.532 268.635Z" fill="#9BC3D3"/>
<path fill-rule="evenodd" clip-rule="evenodd" d="M152.504 268.612L145.101 268.594L149.725 266.832L156.626 266.847L152.504 268.612Z" fill="#9BC3D3"/>
<path fill-rule="evenodd" clip-rule="evenodd" d="M179.591 268.68L172.188 268.662L174.979 266.88L181.88 266.893L179.591 268.68Z" fill="#9BC3D3"/>
<path fill-rule="evenodd" clip-rule="evenodd" d="M170.563 268.657L163.16 268.639L166.561 266.865L173.464 266.878L170.563 268.657Z" fill="#9BC3D3"/>
<path fill-rule="evenodd" clip-rule="evenodd" d="M215.611 268.771L190.392 268.708L191.949 266.913L215.46 266.958L215.611 268.771Z" fill="#9BC3D3"/>
<path fill-rule="evenodd" clip-rule="evenodd" d="M188.767 268.704L181.363 268.684L183.532 266.896L190.434 266.91L188.767 268.704Z" fill="#9BC3D3"/>
<path fill-rule="evenodd" clip-rule="evenodd" d="M233.978 268.817L226.576 268.798L225.683 266.976L232.585 266.991L233.978 268.817Z" fill="#9BC3D3"/>
<path fill-rule="evenodd" clip-rule="evenodd" d="M224.951 268.794L217.548 268.776L217.266 266.961L224.168 266.974L224.951 268.794Z" fill="#9BC3D3"/>
<path fill-rule="evenodd" clip-rule="evenodd" d="M252.039 268.862L244.637 268.843L242.52 267.008L249.422 267.022L252.039 268.862Z" fill="#9BC3D3"/>
<path fill-rule="evenodd" clip-rule="evenodd" d="M243.011 268.84L235.607 268.821L234.103 266.993L241.005 267.005L243.011 268.84Z" fill="#9BC3D3"/>
<path fill-rule="evenodd" clip-rule="evenodd" d="M270.243 268.908L262.84 268.89L259.49 267.042L266.393 267.055L270.243 268.908Z" fill="#9BC3D3"/>
<path fill-rule="evenodd" clip-rule="evenodd" d="M261.214 268.886L253.811 268.866L251.073 267.024L257.976 267.039L261.214 268.886Z" fill="#9BC3D3"/>
<path fill-rule="evenodd" clip-rule="evenodd" d="M288.302 268.954L280.899 268.934L276.328 267.073L283.229 267.086L288.302 268.954Z" fill="#9BC3D3"/>
<path fill-rule="evenodd" clip-rule="evenodd" d="M279.274 268.931L271.871 268.912L267.911 267.057L274.813 267.07L279.274 268.931Z" fill="#9BC3D3"/>
<path fill-rule="evenodd" clip-rule="evenodd" d="M133.476 273.013H296.183V270.418H133.476V273.013Z" fill="#9BC3D3"/>
<path fill-rule="evenodd" clip-rule="evenodd" d="M56.7626 63.32L56.0026 62.4798C56.835 61.7219 57.6816 60.9744 58.5406 60.2373L59.2755 61.0997C58.4231 61.8294 57.5862 62.5695 56.7626 63.32ZM51.9385 67.9955L51.1282 67.2042C51.9141 66.3937 52.7141 65.5943 53.5288 64.8046L54.3154 65.6195C53.5096 66.4019 52.7163 67.1938 51.9385 67.9955ZM47.4235 72.9506L46.5644 72.2112C47.2971 71.3555 48.046 70.5086 48.8083 69.6714L49.643 70.4374C48.8889 71.265 48.1473 72.103 47.4235 72.9506ZM43.2213 78.1791L42.3178 77.4962C42.9972 76.5952 43.6907 75.7031 44.4019 74.8199L45.281 75.5325C44.5779 76.4061 43.8918 77.2885 43.2213 78.1791ZM39.3517 83.6631L38.409 83.0372C39.0308 82.0954 39.6674 81.1611 40.3217 80.2356L41.2451 80.8911C40.5974 81.8062 39.9668 82.7309 39.3517 83.6631ZM220.035 83.9434C219.42 83.0083 218.789 82.0806 218.144 81.1596L219.068 80.5077C219.721 81.4369 220.359 82.375 220.978 83.319L220.035 83.9434ZM35.8299 89.3799L34.8493 88.8141C35.4125 87.8345 35.9911 86.8623 36.5837 85.8975L37.547 86.4937C36.9585 87.4481 36.3863 88.4099 35.8299 89.3799ZM223.554 89.677C222.999 88.7063 222.427 87.7415 221.838 86.7827L222.801 86.1879C223.396 87.1564 223.975 88.1316 224.535 89.1126L223.554 89.677ZM32.6685 95.3072L31.6546 94.803C32.1561 93.79 32.6727 92.7837 33.2052 91.7833L34.2032 92.3187C33.6752 93.308 33.1632 94.3039 32.6685 95.3072ZM226.713 95.6184C226.218 94.6136 225.708 93.6155 225.18 92.6226L226.178 92.0894C226.711 93.0927 227.228 94.1012 227.727 95.1157L226.713 95.6184ZM29.88 101.421L28.8375 100.982C29.2747 99.9375 29.7288 98.9008 30.1981 97.87L31.2271 98.3416C30.7624 99.362 30.3129 100.388 29.88 101.421ZM229.496 101.744C229.065 100.711 228.617 99.6829 228.152 98.6596L229.181 98.1887C229.65 99.2231 230.103 100.263 230.538 101.307L229.496 101.744ZM27.4748 107.697L26.408 107.324C26.7791 106.255 27.1678 105.191 27.5741 104.133L28.6301 104.54C28.2279 105.587 27.8434 106.64 27.4748 107.697ZM231.891 108.032C231.525 106.974 231.142 105.92 230.742 104.87L231.798 104.465C232.202 105.527 232.59 106.592 232.96 107.661L231.891 108.032ZM25.4606 114.113L24.3715 113.806C24.6775 112.716 24.9998 111.631 25.3401 110.548L26.4179 110.889C26.0822 111.959 25.762 113.034 25.4606 114.113ZM233.89 114.457C233.591 113.377 233.274 112.302 232.94 111.229L234.02 110.892C234.357 111.975 234.677 113.063 234.979 114.154L233.89 114.457ZM23.8449 120.642L22.7403 120.402C22.9791 119.295 23.2339 118.191 23.5057 117.091L24.6036 117.364C24.334 118.452 24.0813 119.546 23.8449 120.642ZM235.486 120.995C235.254 119.898 235.004 118.805 234.739 117.713L235.836 117.444C236.106 118.547 236.357 119.651 236.592 120.76L235.486 120.995ZM22.6332 127.259L21.5159 127.089C21.6861 125.969 21.8713 124.851 22.0756 123.736L23.1887 123.941C22.9869 125.044 22.8015 126.151 22.6332 127.259ZM236.672 127.619C236.507 126.509 236.327 125.403 236.13 124.297L237.242 124.096C237.442 125.213 237.625 126.332 237.789 127.453L236.672 127.619ZM21.8306 133.939L20.7041 133.838C20.8058 132.709 20.9228 131.582 21.0587 130.456L22.1807 130.592C22.0469 131.706 21.93 132.822 21.8306 133.939ZM237.446 134.303C237.352 133.186 237.24 132.07 237.11 130.956L238.234 130.824C238.365 131.95 238.478 133.079 238.572 134.208L237.446 134.303ZM21.4394 140.658L20.3086 140.626C20.3397 139.493 20.3892 138.361 20.4546 137.23L21.5829 137.295C21.5179 138.415 21.4706 139.536 21.4394 140.658ZM237.806 141.023C237.781 139.903 237.737 138.781 237.678 137.661L238.806 137.599C238.868 138.732 238.911 139.865 238.936 140.998L237.806 141.023ZM20.3309 147.427C20.2922 146.293 20.2712 145.16 20.268 144.027L21.3988 144.023C21.402 145.144 21.423 146.266 21.4617 147.388L20.3309 147.427ZM238.882 147.798L237.752 147.754C237.795 146.633 237.822 145.511 237.831 144.389L238.962 144.398C238.953 145.532 238.927 146.666 238.882 147.798ZM20.7716 154.212C20.6635 153.083 20.5716 151.953 20.4988 150.822L21.6274 150.749C21.7001 151.868 21.7897 152.985 21.898 154.103L20.7716 154.212ZM238.409 154.58L237.284 154.466C237.396 153.351 237.492 152.233 237.569 151.114L238.698 151.192C238.618 152.324 238.522 153.453 238.409 154.58ZM21.6319 160.959C21.454 159.837 21.2928 158.715 21.1503 157.591L22.2723 157.448C22.4127 158.56 22.5715 159.67 22.7491 160.778L21.6319 160.959ZM237.52 161.321L236.405 161.137C236.587 160.03 236.75 158.921 236.896 157.809L238.017 157.958C237.87 159.081 237.704 160.202 237.52 161.321ZM22.9074 167.637C22.6597 166.53 22.4303 165.42 22.2182 164.307L23.3291 164.095C23.5389 165.195 23.7664 166.294 24.0115 167.389L22.9074 167.637ZM236.221 167.991L235.118 167.741C235.367 166.646 235.6 165.549 235.813 164.449L236.923 164.666C236.706 165.778 236.472 166.886 236.221 167.991ZM24.5956 174.225C24.28 173.136 23.9806 172.041 23.7 170.945L24.7955 170.662C25.074 171.748 25.3687 172.83 25.6823 173.909L24.5956 174.225ZM234.515 174.569L233.43 174.249C233.744 173.173 234.043 172.093 234.324 171.008L235.419 171.294C235.135 172.39 234.833 173.482 234.515 174.569ZM26.6907 180.695C26.3075 179.627 25.9419 178.554 25.5928 177.477L26.6685 177.127C27.013 178.192 27.3765 179.254 27.7551 180.312L26.6907 180.695ZM232.408 181.027L231.343 180.642C231.724 179.587 232.089 178.527 232.435 177.463L233.511 177.815C233.16 178.89 232.791 179.962 232.408 181.027ZM29.1854 187.022C28.7358 185.979 28.3041 184.931 27.8887 183.878L28.94 183.461C29.351 184.502 29.7784 185.54 30.2231 186.573L29.1854 187.022ZM229.904 187.341L228.866 186.889C229.312 185.861 229.741 184.826 230.152 183.785L231.204 184.204C230.787 185.256 230.355 186.302 229.904 187.341ZM32.0687 193.181C31.5541 192.168 31.0582 191.148 30.5789 190.123L31.6016 189.642C32.0764 190.655 32.5678 191.664 33.0756 192.667L32.0687 193.181ZM227.016 193.485L226.009 192.971C226.516 191.971 227.009 190.965 227.485 189.953L228.507 190.435C228.027 191.459 227.53 192.475 227.016 193.485ZM35.3298 199.148C34.7531 198.168 34.1954 197.181 33.6534 196.19L34.6449 195.645C35.1807 196.626 35.7337 197.602 36.3034 198.572L35.3298 199.148ZM223.754 199.436L222.781 198.859C223.349 197.893 223.904 196.92 224.44 195.941L225.432 196.486C224.888 197.477 224.329 198.46 223.754 199.436ZM38.9532 204.902C38.3181 203.959 37.6993 203.009 37.0968 202.053L38.0527 201.447C38.6493 202.394 39.2615 203.333 39.8892 204.268L38.9532 204.902ZM220.13 205.171L219.193 204.535C219.822 203.606 220.435 202.67 221.032 201.726L221.987 202.332C221.384 203.287 220.765 204.233 220.13 205.171ZM42.9218 210.424C42.2305 209.521 41.5548 208.61 40.8953 207.694L41.8121 207.03C42.4649 207.938 43.134 208.838 43.8186 209.732L42.9218 210.424ZM216.156 210.666L215.262 209.972C215.948 209.085 216.617 208.188 217.27 207.284L218.186 207.95C217.525 208.864 216.849 209.769 216.156 210.666ZM47.2166 215.686C46.4765 214.835 45.7483 213.969 45.0304 213.089L45.9051 212.37C46.6155 213.241 47.3378 214.098 48.069 214.941L47.2166 215.686ZM211.853 215.9L211.003 215.151C211.741 214.308 212.463 213.456 213.172 212.595L214.045 213.317C213.329 214.187 212.599 215.048 211.853 215.9ZM51.8217 220.672C51.0321 219.868 50.2514 219.048 49.4818 218.215L50.3098 217.444C51.0728 218.269 51.8446 219.08 52.6276 219.877L51.8217 220.672ZM207.228 220.859L206.427 220.06C207.217 219.263 207.994 218.456 208.755 217.639L209.582 218.413C208.812 219.239 208.027 220.055 207.228 220.859ZM56.7204 225.36C55.8835 224.607 55.0562 223.84 54.2378 223.057L55.0178 222.236C55.8273 223.011 56.6472 223.771 57.476 224.515L56.7204 225.36ZM202.301 225.528L201.55 224.681C202.388 223.933 203.213 223.176 204.023 222.409L204.801 223.232C203.981 224.009 203.147 224.774 202.301 225.528ZM61.8964 229.728C61.0151 229.028 60.1413 228.314 59.2755 227.585L60.0023 226.717C60.8591 227.438 61.7241 228.146 62.5987 228.838L61.8964 229.728ZM197.1 229.883L196.402 228.991C197.284 228.297 198.152 227.591 199.008 226.876L199.732 227.746C198.868 228.469 197.991 229.182 197.1 229.883ZM67.3348 233.768C66.4099 233.124 65.4932 232.464 64.5845 231.79L65.2581 230.878C66.1556 231.546 67.0635 232.198 67.9802 232.835L67.3348 233.768ZM191.633 233.919L190.99 232.985C191.91 232.35 192.823 231.698 193.725 231.03L194.397 231.943C193.483 232.618 192.562 233.277 191.633 233.919ZM73.0158 237.458C72.0517 236.874 71.0943 236.273 70.1465 235.657L70.7608 234.705C71.699 235.315 72.6461 235.91 73.6013 236.488L73.0158 237.458ZM185.93 237.609L185.347 236.637C186.303 236.06 187.253 235.466 188.198 234.855L188.81 235.808C187.856 236.425 186.896 237.025 185.93 237.609ZM78.9162 240.789C77.9166 240.266 76.9237 239.727 75.9397 239.17L76.4942 238.182C77.4694 238.731 78.4512 239.265 79.4396 239.784L78.9162 240.789ZM180.016 240.938L179.492 239.933C180.483 239.415 181.466 238.881 182.446 238.331L182.999 239.32C182.01 239.876 181.015 240.416 180.016 240.938ZM85.0141 243.745C83.9835 243.285 82.9603 242.808 81.9422 242.315L82.4346 241.294C83.4416 241.782 84.4544 242.254 85.4732 242.709L85.0141 243.745ZM173.903 243.891L173.444 242.854C174.463 242.4 175.48 241.929 176.49 241.44L176.981 242.463C175.959 242.956 174.933 243.432 173.903 243.891ZM91.2835 246.317C90.2263 245.921 89.175 245.509 88.1281 245.08L88.5569 244.03C89.5927 244.454 90.6329 244.863 91.6791 245.254L91.2835 246.317ZM167.619 246.455L167.226 245.391C168.274 245.002 169.317 244.595 170.355 244.171L170.781 245.222C169.732 245.651 168.678 246.061 167.619 246.455ZM97.7008 248.495C96.6207 248.165 95.545 247.819 94.4752 247.455L94.8367 246.381C95.8961 246.741 96.9607 247.083 98.0298 247.409L97.7008 248.495ZM161.19 248.62L160.864 247.535C161.933 247.211 162.999 246.87 164.061 246.513L164.421 247.588C163.348 247.949 162.271 248.293 161.19 248.62ZM104.242 250.271C103.141 250.009 102.047 249.729 100.957 249.434L101.253 248.338C102.332 248.631 103.416 248.908 104.502 249.168L104.242 250.271ZM154.639 250.378L154.38 249.273C155.469 249.018 156.554 248.745 157.636 248.454L157.928 249.55C156.834 249.844 155.738 250.119 154.639 250.378ZM110.878 251.64C109.765 251.445 108.655 251.235 107.548 251.006L107.776 249.896C108.872 250.121 109.97 250.33 111.073 250.522L110.878 251.64ZM147.992 251.723L147.803 250.604C148.904 250.417 150.004 250.212 151.102 249.99L151.325 251.102C150.217 251.327 149.105 251.534 147.992 251.723ZM117.591 252.596C116.466 252.471 115.345 252.329 114.227 252.169L114.386 251.046C115.493 251.204 116.604 251.345 117.714 251.468L117.591 252.596ZM141.275 252.65L141.156 251.523C142.267 251.405 143.377 251.268 144.486 251.115L144.641 252.239C143.521 252.394 142.398 252.531 141.275 252.65ZM124.346 253.136C123.218 253.081 122.091 253.009 120.963 252.918L121.054 251.787C122.168 251.876 123.284 251.948 124.402 252.003L124.346 253.136ZM134.515 253.16L134.465 252.027C135.582 251.977 136.698 251.911 137.815 251.827L137.899 252.958C136.771 253.042 135.644 253.11 134.515 253.16ZM129.693 253.266C129.04 253.266 128.388 253.26 127.736 253.249L127.755 252.115C128.873 252.135 129.996 252.138 131.111 252.123L131.126 253.257C130.648 253.263 130.171 253.266 129.693 253.266Z" fill="#34466B"/>
<path fill-rule="evenodd" clip-rule="evenodd" d="M127.904 49.475L127.884 48.3407C129.012 48.3201 130.146 48.3212 131.272 48.3389L131.255 49.4732C130.138 49.4549 129.018 49.4544 127.904 49.475ZM137.941 49.825C136.834 49.7269 135.719 49.6486 134.6 49.5901L134.66 48.457C135.792 48.5167 136.919 48.5959 138.04 48.6951L137.941 49.825ZM121.215 49.8314L121.116 48.7015C122.236 48.6018 123.364 48.5216 124.496 48.4613L124.555 49.5942C123.437 49.6536 122.323 49.7329 121.215 49.8314ZM144.587 50.6509C143.488 50.4742 142.383 50.3169 141.272 50.1783L141.411 49.053C142.534 49.1926 143.654 49.3521 144.766 49.5309L144.587 50.6509ZM114.571 50.6627L114.39 49.543C115.504 49.3629 116.622 49.2024 117.747 49.0624L117.885 50.1877C116.774 50.3266 115.669 50.4851 114.571 50.6627ZM151.158 51.9502C150.073 51.6958 148.982 51.4586 147.884 51.2413L148.103 50.1284C149.213 50.3487 150.318 50.5881 151.416 50.8461L151.158 51.9502ZM108.001 51.968L107.742 50.864C108.838 50.6046 109.942 50.365 111.054 50.144L111.275 51.2561C110.176 51.4749 109.086 51.7122 108.001 51.968ZM157.616 53.7203C156.553 53.3881 155.482 53.0737 154.403 52.7778L154.701 51.6832C155.793 51.9828 156.878 52.301 157.954 52.6384L157.616 53.7203ZM101.543 53.7433L101.204 52.6614C102.282 52.3232 103.366 52.0043 104.456 51.704L104.755 52.7971C103.677 53.0944 102.606 53.4096 101.543 53.7433ZM163.951 55.959C162.911 55.5482 161.862 55.1567 160.805 54.7829L161.18 53.7129C162.251 54.0911 163.314 54.4878 164.366 54.9038L163.951 55.959ZM95.2278 55.9798L94.813 54.9238C95.8628 54.51 96.9223 54.1133 97.9876 53.7351L98.3654 54.8037C97.3111 55.1775 96.265 55.5697 95.2278 55.9798ZM170.106 58.6472C169.097 58.163 168.08 57.6965 167.053 57.2479L167.503 56.2075C168.544 56.662 169.574 57.1344 170.594 57.6238L170.106 58.6472ZM89.1047 58.6568L88.6168 57.6342C89.6311 57.1463 90.6573 56.6761 91.6909 56.223L92.1441 57.2634C91.1208 57.7106 90.108 58.1748 89.1047 58.6568ZM83.1858 61.7691L82.6246 60.7844C83.6042 60.2237 84.5934 59.6809 85.593 59.1552L86.1186 60.16C85.1302 60.6791 84.1521 61.2159 83.1858 61.7691ZM176.048 61.7693C175.078 61.2139 174.097 60.6755 173.105 60.155L173.63 59.1509C174.633 59.6774 175.626 60.2224 176.609 60.7845L176.048 61.7693ZM77.4982 65.2982L76.8691 64.3557C77.8065 63.7269 78.7551 63.1143 79.7154 62.5181L80.3098 63.4829C79.362 64.0709 78.4246 64.6768 77.4982 65.2982ZM181.749 65.3088C180.821 64.6859 179.881 64.0785 178.931 63.489L179.525 62.5242C180.488 63.1212 181.439 63.7359 182.379 64.3663L181.749 65.3088ZM72.0731 69.2255L71.3789 68.3304C72.2705 67.6356 73.1732 66.9563 74.09 66.2926L74.7516 67.2137C73.8452 67.8685 72.9529 68.5396 72.0731 69.2255ZM187.183 69.245C186.301 68.5576 185.408 67.885 184.501 67.2287L185.164 66.3092C186.082 66.9736 186.986 67.6536 187.877 68.35L187.183 69.245ZM66.9371 73.5325L66.1822 72.6878C67.0213 71.9314 67.8753 71.1891 68.7432 70.4624L69.4677 71.3337C68.6109 72.0516 67.7681 72.7842 66.9371 73.5325ZM192.323 73.5569C191.493 72.8087 190.649 72.0753 189.792 71.356L190.517 70.4854C191.385 71.2136 192.239 71.9559 193.079 72.7145L192.323 73.5569ZM62.116 78.1946L61.3035 77.4056C62.0886 76.5906 62.8878 75.7905 63.6996 75.003L64.4862 75.8194C63.6833 76.5966 62.8923 77.3885 62.116 78.1946ZM197.141 78.2223C196.367 77.4162 195.578 76.6242 194.775 75.8478L195.559 75.0314C196.373 75.8182 197.171 76.619 197.957 77.4348L197.141 78.2223ZM57.6372 83.1897L56.7685 82.4615C57.4945 81.5924 58.2353 80.7359 58.9931 79.8935L59.8322 80.6521C59.0863 81.4842 58.3536 82.331 57.6372 83.1897ZM201.618 83.2157C200.903 82.3577 200.172 81.5124 199.425 80.6796L200.266 79.921C201.022 80.7634 201.762 81.6199 202.486 82.4882L201.618 83.2157ZM53.5193 88.4928L52.6025 87.8284C53.2664 86.9088 53.9436 86.0019 54.6393 85.1076L55.531 85.8039C54.8456 86.6886 54.1743 87.5851 53.5193 88.4928ZM205.728 88.5136C205.076 87.6067 204.406 86.7116 203.721 85.8292L204.613 85.1321C205.307 86.0257 205.984 86.9319 206.645 87.8499L205.728 88.5136ZM49.7864 94.0795L48.826 93.4811C49.4219 92.5163 50.0348 91.5627 50.6647 90.6209L51.6029 91.2519C50.9819 92.1826 50.3764 93.1259 49.7864 94.0795ZM209.451 94.0877C208.864 93.137 208.26 92.1967 207.64 91.2683L208.578 90.6365C209.207 91.576 209.817 92.5274 210.412 93.4907L209.451 94.0877ZM212.767 99.9104C212.248 98.9196 211.713 97.9393 211.161 96.9701L212.143 96.4073C212.702 97.3883 213.244 98.3813 213.768 99.3831L212.767 99.9104ZM46.4602 99.9207L45.4592 99.3935C45.9863 98.3872 46.529 97.3913 47.0894 96.4073L48.0727 96.9701C47.5182 97.943 46.9799 98.9263 46.4602 99.9207ZM215.659 105.953C215.211 104.927 214.747 103.912 214.266 102.906L215.286 102.415C215.773 103.433 216.243 104.461 216.695 105.498L215.659 105.953ZM43.5585 105.988L42.5219 105.536C42.9751 104.493 43.4461 103.46 43.9348 102.438L44.955 102.928C44.4715 103.938 44.0065 104.959 43.5585 105.988ZM218.113 112.192C217.739 111.134 217.35 110.086 216.94 109.046L217.991 108.63C218.405 109.682 218.802 110.743 219.179 111.813L218.113 112.192ZM41.098 112.254L40.0311 111.876C40.4089 110.802 40.8052 109.738 41.2199 108.683L42.2713 109.098C41.8632 110.141 41.4706 111.193 41.098 112.254ZM220.118 118.601C219.822 117.519 219.507 116.445 219.173 115.378L220.251 115.039C220.589 116.118 220.909 117.206 221.209 118.301L220.118 118.601ZM39.0952 118.674L38.0047 118.375C38.3034 117.279 38.622 116.192 38.9577 115.111L40.0371 115.45C39.7044 116.517 39.3902 117.592 39.0952 118.674ZM221.658 125.138C221.439 124.037 221.201 122.942 220.946 121.855L222.046 121.595C222.305 122.694 222.545 123.802 222.766 124.916L221.658 125.138ZM37.5603 125.213L36.4521 124.992C36.6717 123.877 36.9105 122.77 37.1692 121.669L38.2693 121.929C38.0143 123.017 37.7784 124.111 37.5603 125.213ZM222.727 131.769C222.588 130.654 222.43 129.546 222.253 128.444L223.368 128.263C223.548 129.378 223.708 130.499 223.85 131.628L222.727 131.769ZM36.4972 131.844L35.375 131.704C35.5152 130.575 35.6754 129.453 35.8532 128.338L36.9711 128.518C36.7929 129.62 36.6347 130.729 36.4972 131.844ZM223.322 138.459C223.263 137.336 223.183 136.219 223.084 135.108L224.21 135.007C224.311 136.132 224.392 137.263 224.451 138.399L223.322 138.459ZM35.9062 138.535L34.7775 138.475C34.8373 137.34 34.9167 136.21 35.016 135.085L36.1423 135.185C36.0452 136.296 35.966 137.413 35.9062 138.535Z" fill="#34466B"/>
<path fill-rule="evenodd" clip-rule="evenodd" d="M204.705 72.0102C204.705 68.6273 207.439 65.8865 210.81 65.8865C214.182 65.8865 216.916 68.6273 216.916 72.0102C216.916 75.3925 214.182 78.1355 210.81 78.1355C207.439 78.1355 204.705 75.3925 204.705 72.0102Z" fill="#34466B"/>
<path fill-rule="evenodd" clip-rule="evenodd" d="M63.3521 53.8621C63.3521 50.4797 66.0861 47.7383 69.4574 47.7383C72.8287 47.7383 75.5634 50.4797 75.5634 53.8621C75.5634 57.2444 72.8287 59.9881 69.4574 59.9881C66.0861 59.9881 63.3521 57.2444 63.3521 53.8621Z" fill="#34466B"/>
<path fill-rule="evenodd" clip-rule="evenodd" d="M28.432 150.272C28.432 146.891 31.1664 144.149 34.5378 144.149C37.9093 144.149 40.644 146.891 40.644 150.272C40.644 153.655 37.9093 156.398 34.5378 156.398C31.1664 156.398 28.432 153.655 28.432 150.272Z" fill="#34466B"/>
<path fill-rule="evenodd" clip-rule="evenodd" d="M228.89 243.833C225.729 239.219 225.44 232.999 225.44 232.999H204.377C204.377 232.999 204.09 239.219 200.928 243.833C197.765 248.446 191.154 251.329 191.154 251.329H238.665C238.665 251.329 232.053 248.446 228.89 243.833Z" fill="#34466B"/>
<path fill-rule="evenodd" clip-rule="evenodd" d="M318.845 229.622C318.845 233.444 315.756 236.543 311.945 236.543H117.272C113.461 236.543 110.372 233.444 110.372 229.622V101.005C110.372 97.1831 113.461 94.0854 117.272 94.0854H311.945C315.756 94.0854 318.845 97.1831 318.845 101.005V229.622Z" fill="#34466B"/>
<path fill-rule="evenodd" clip-rule="evenodd" d="M110.372 216.78V229.622C110.372 233.444 113.461 236.543 117.272 236.543H311.945C315.756 236.543 318.845 233.444 318.845 229.622V216.78H110.372Z" fill="#9BC3D3"/>
<path fill-rule="evenodd" clip-rule="evenodd" d="M239.999 253.681H190.155C189.727 253.681 189.379 253.332 189.379 252.902V249.103C189.379 248.673 189.727 248.324 190.155 248.324H239.999C240.427 248.324 240.775 248.673 240.775 249.103V252.902C240.775 253.332 240.427 253.681 239.999 253.681Z" fill="#9BC3D3"/>
<path fill-rule="evenodd" clip-rule="evenodd" d="M307.617 209.508H120.955C119.285 209.508 117.932 208.151 117.932 206.477V104.072C117.932 102.399 119.285 101.042 120.955 101.042H307.617C309.287 101.042 310.641 102.399 310.641 104.072V206.477C310.641 208.151 309.287 209.508 307.617 209.508Z" fill="#9BC3D3"/>
<path fill-rule="evenodd" clip-rule="evenodd" d="M305.059 114.787C188.411 116.641 129.266 116.641 127.623 114.787C125.159 112.006 125.287 120.207 125.287 134.096C125.287 143.355 125.287 166.902 125.287 204.737H304.995V134.096C305.059 114.787 305.059 114.787 305.059 114.787Z" fill="#DEEDF2"/>
<path fill-rule="evenodd" clip-rule="evenodd" d="M304.995 111.984C304.995 110.309 303.642 108.952 301.972 108.952H128.311C126.641 108.952 125.288 110.309 125.288 111.984V120.502H304.995V111.984Z" fill="#CEDEE7"/>
<path fill-rule="evenodd" clip-rule="evenodd" d="M215.292 231.552H214.205C211.447 231.552 209.21 229.308 209.21 226.541V225.452C209.21 222.685 211.447 220.441 214.205 220.441H215.292C218.05 220.441 220.287 222.685 220.287 225.452V226.541C220.287 229.308 218.05 231.552 215.292 231.552Z" fill="#34466B"/>
<path fill-rule="evenodd" clip-rule="evenodd" d="M282.785 114.813C282.785 115.996 281.829 116.955 280.65 116.955C279.471 116.955 278.516 115.996 278.516 114.813C278.516 113.631 279.471 112.673 280.65 112.673C281.829 112.673 282.785 113.631 282.785 114.813Z" fill="#34466B"/>
<path fill-rule="evenodd" clip-rule="evenodd" d="M291.486 114.813C291.486 115.996 290.531 116.955 289.352 116.955C288.172 116.955 287.216 115.996 287.216 114.813C287.216 113.631 288.172 112.673 289.352 112.673C290.531 112.673 291.486 113.631 291.486 114.813Z" fill="#34466B"/>
<path fill-rule="evenodd" clip-rule="evenodd" d="M300.187 114.813C300.187 115.996 299.231 116.955 298.052 116.955C296.873 116.955 295.918 115.996 295.918 114.813C295.918 113.631 296.873 112.673 298.052 112.673C299.231 112.673 300.187 113.631 300.187 114.813Z" fill="#34466B"/>
<path fill-rule="evenodd" clip-rule="evenodd" d="M82.725 289.282C82.725 290.951 76.4998 292.305 68.824 292.305C61.1457 292.305 54.9235 290.951 54.9235 289.282C54.9235 287.615 61.1457 286.26 68.824 286.26C76.4998 286.26 82.725 287.615 82.725 289.282Z" fill="#D39E00"/>
<path fill-rule="evenodd" clip-rule="evenodd" d="M116.738 289.282C116.738 290.951 110.513 292.305 102.837 292.305C95.1587 292.305 88.9365 290.951 88.9365 289.282C88.9365 287.615 95.1587 286.26 102.837 286.26C110.513 286.26 116.738 287.615 116.738 289.282Z" fill="#D39E00"/>
<path fill-rule="evenodd" clip-rule="evenodd" d="M54.9235 289.282H82.7249V285.278H54.9235V289.282Z" fill="#D39E00"/>
<path fill-rule="evenodd" clip-rule="evenodd" d="M88.9365 289.282H116.738V285.278H88.9365V289.282Z" fill="#D39E00"/>
<path fill-rule="evenodd" clip-rule="evenodd" d="M82.7249 285.278C82.7249 286.949 76.4997 288.303 68.8239 288.303C61.1456 288.303 54.9235 286.949 54.9235 285.278C54.9235 283.61 61.1456 282.256 68.8239 282.256C76.4997 282.256 82.7249 283.61 82.7249 285.278Z" fill="#FFCC33"/>
<path fill-rule="evenodd" clip-rule="evenodd" d="M116.738 285.278C116.738 286.949 110.513 288.303 102.837 288.303C95.1587 288.303 88.9365 286.949 88.9365 285.278C88.9365 283.61 95.1587 282.256 102.837 282.256C110.513 282.256 116.738 283.61 116.738 285.278Z" fill="#FFCC33"/>
<path fill-rule="evenodd" clip-rule="evenodd" d="M82.725 283.2C82.725 284.87 76.4998 286.223 68.824 286.223C61.1457 286.223 54.9235 284.87 54.9235 283.2C54.9235 281.533 61.1457 280.178 68.824 280.178C76.4998 280.178 82.725 281.533 82.725 283.2Z" fill="#D39E00"/>
<path fill-rule="evenodd" clip-rule="evenodd" d="M116.738 283.2C116.738 284.87 110.513 286.223 102.837 286.223C95.1587 286.223 88.9365 284.87 88.9365 283.2C88.9365 281.533 95.1587 280.178 102.837 280.178C110.513 280.178 116.738 281.533 116.738 283.2Z" fill="#D39E00"/>
<path fill-rule="evenodd" clip-rule="evenodd" d="M54.9235 283.201H82.7249V279.197H54.9235V283.201Z" fill="#D39E00"/>
<path fill-rule="evenodd" clip-rule="evenodd" d="M88.9365 283.201H116.738V279.197H88.9365V283.201Z" fill="#D39E00"/>
<path fill-rule="evenodd" clip-rule="evenodd" d="M82.725 279.196C82.725 280.867 76.4998 282.221 68.824 282.221C61.1457 282.221 54.9235 280.867 54.9235 279.196C54.9235 277.528 61.1457 276.175 68.824 276.175C76.4998 276.175 82.725 277.528 82.725 279.196Z" fill="#FFCC33"/>
<path fill-rule="evenodd" clip-rule="evenodd" d="M116.738 279.196C116.738 280.867 110.513 282.221 102.837 282.221C95.1587 282.221 88.9365 280.867 88.9365 279.196C88.9365 277.528 95.1587 276.175 102.837 276.175C110.513 276.175 116.738 277.528 116.738 279.196Z" fill="#FFCC33"/>
<path fill-rule="evenodd" clip-rule="evenodd" d="M82.725 277.119C82.725 278.788 76.4998 280.142 68.824 280.142C61.1457 280.142 54.9235 278.788 54.9235 277.119C54.9235 275.452 61.1457 274.097 68.824 274.097C76.4998 274.097 82.725 275.452 82.725 277.119Z" fill="#D39E00"/>
<path fill-rule="evenodd" clip-rule="evenodd" d="M116.738 277.119C116.738 278.788 110.513 280.142 102.837 280.142C95.1587 280.142 88.9365 278.788 88.9365 277.119C88.9365 275.452 95.1587 274.097 102.837 274.097C110.513 274.097 116.738 275.452 116.738 277.119Z" fill="#D39E00"/>
<path fill-rule="evenodd" clip-rule="evenodd" d="M54.9235 277.12H82.7249V273.115H54.9235V277.12Z" fill="#D39E00"/>
<path fill-rule="evenodd" clip-rule="evenodd" d="M88.9365 277.12H116.738V273.115H88.9365V277.12Z" fill="#D39E00"/>
<path fill-rule="evenodd" clip-rule="evenodd" d="M82.725 273.115C82.725 274.786 76.4998 276.14 68.824 276.14C61.1457 276.14 54.9235 274.786 54.9235 273.115C54.9235 271.447 61.1457 270.094 68.824 270.094C76.4998 270.094 82.725 271.447 82.725 273.115Z" fill="#FFCC33"/>
<path fill-rule="evenodd" clip-rule="evenodd" d="M116.738 273.115C116.738 274.786 110.513 276.14 102.837 276.14C95.1587 276.14 88.9365 274.786 88.9365 273.115C88.9365 271.447 95.1587 270.094 102.837 270.094C110.513 270.094 116.738 271.447 116.738 273.115Z" fill="#FFCC33"/>
<path fill-rule="evenodd" clip-rule="evenodd" d="M82.7249 271.038C82.7249 272.707 76.4997 274.061 68.8239 274.061C61.1456 274.061 54.9235 272.707 54.9235 271.038C54.9235 269.37 61.1456 268.016 68.8239 268.016C76.4997 268.016 82.7249 269.37 82.7249 271.038Z" fill="#D39E00"/>
<path fill-rule="evenodd" clip-rule="evenodd" d="M116.738 271.038C116.738 272.707 110.513 274.061 102.837 274.061C95.1587 274.061 88.9365 272.707 88.9365 271.038C88.9365 269.37 95.1587 268.016 102.837 268.016C110.513 268.016 116.738 269.37 116.738 271.038Z" fill="#D39E00"/>
<path fill-rule="evenodd" clip-rule="evenodd" d="M54.9235 271.038H82.7249V267.034H54.9235V271.038Z" fill="#D39E00"/>
<path fill-rule="evenodd" clip-rule="evenodd" d="M88.9365 271.038H116.738V267.034H88.9365V271.038Z" fill="#D39E00"/>
<path fill-rule="evenodd" clip-rule="evenodd" d="M82.7249 267.033C82.7249 268.704 76.4997 270.058 68.8239 270.058C61.1456 270.058 54.9235 268.704 54.9235 267.033C54.9235 265.366 61.1456 264.012 68.8239 264.012C76.4997 264.012 82.7249 265.366 82.7249 267.033Z" fill="#FFCC33"/>
<path fill-rule="evenodd" clip-rule="evenodd" d="M116.738 267.033C116.738 268.704 110.513 270.058 102.837 270.058C95.1587 270.058 88.9365 268.704 88.9365 267.033C88.9365 265.366 95.1587 264.012 102.837 264.012C110.513 264.012 116.738 265.366 116.738 267.033Z" fill="#FFCC33"/>
<path fill-rule="evenodd" clip-rule="evenodd" d="M82.7249 264.957C82.7249 266.626 76.4997 267.979 68.8239 267.979C61.1456 267.979 54.9235 266.626 54.9235 264.957C54.9235 263.289 61.1456 261.935 68.8239 261.935C76.4997 261.935 82.7249 263.289 82.7249 264.957Z" fill="#D39E00"/>
<path fill-rule="evenodd" clip-rule="evenodd" d="M116.738 264.957C116.738 266.626 110.513 267.979 102.837 267.979C95.1587 267.979 88.9365 266.626 88.9365 264.957C88.9365 263.289 95.1587 261.935 102.837 261.935C110.513 261.935 116.738 263.289 116.738 264.957Z" fill="#D39E00"/>
<path fill-rule="evenodd" clip-rule="evenodd" d="M54.9235 264.956H82.7249V260.952H54.9235V264.956Z" fill="#D39E00"/>
<path fill-rule="evenodd" clip-rule="evenodd" d="M88.9365 264.956H116.738V260.952H88.9365V264.956Z" fill="#D39E00"/>
<path fill-rule="evenodd" clip-rule="evenodd" d="M82.7249 260.952C82.7249 262.623 76.4997 263.977 68.8239 263.977C61.1456 263.977 54.9235 262.623 54.9235 260.952C54.9235 259.285 61.1456 257.931 68.8239 257.931C76.4997 257.931 82.7249 259.285 82.7249 260.952Z" fill="#FFCC33"/>
<path fill-rule="evenodd" clip-rule="evenodd" d="M116.738 260.952C116.738 262.623 110.513 263.977 102.837 263.977C95.1587 263.977 88.9365 262.623 88.9365 260.952C88.9365 259.285 95.1587 257.931 102.837 257.931C110.513 257.931 116.738 259.285 116.738 260.952Z" fill="#FFCC33"/>
<path fill-rule="evenodd" clip-rule="evenodd" d="M82.7249 258.875C82.7249 260.544 76.4997 261.898 68.8239 261.898C61.1456 261.898 54.9235 260.544 54.9235 258.875C54.9235 257.208 61.1456 255.853 68.8239 255.853C76.4997 255.853 82.7249 257.208 82.7249 258.875Z" fill="#D39E00"/>
<path fill-rule="evenodd" clip-rule="evenodd" d="M116.738 258.875C116.738 260.544 110.513 261.898 102.837 261.898C95.1587 261.898 88.9365 260.544 88.9365 258.875C88.9365 257.208 95.1587 255.853 102.837 255.853C110.513 255.853 116.738 257.208 116.738 258.875Z" fill="#D39E00"/>
<path fill-rule="evenodd" clip-rule="evenodd" d="M54.9235 258.875H82.7249V254.871H54.9235V258.875Z" fill="#D39E00"/>
<path fill-rule="evenodd" clip-rule="evenodd" d="M88.9365 258.875H116.738V254.871H88.9365V258.875Z" fill="#D39E00"/>
<path fill-rule="evenodd" clip-rule="evenodd" d="M82.7249 254.871C82.7249 256.542 76.4997 257.896 68.8239 257.896C61.1456 257.896 54.9235 256.542 54.9235 254.871C54.9235 253.203 61.1456 251.849 68.8239 251.849C76.4997 251.849 82.7249 253.203 82.7249 254.871Z" fill="#FFCC33"/>
<path fill-rule="evenodd" clip-rule="evenodd" d="M116.738 254.871C116.738 256.542 110.513 257.896 102.837 257.896C95.1587 257.896 88.9365 256.542 88.9365 254.871C88.9365 253.203 95.1587 251.849 102.837 251.849C110.513 251.849 116.738 253.203 116.738 254.871Z" fill="#FFCC33"/>
<path fill-rule="evenodd" clip-rule="evenodd" d="M82.725 252.794C82.725 254.463 76.4998 255.817 68.824 255.817C61.1457 255.817 54.9235 254.463 54.9235 252.794C54.9235 251.126 61.1457 249.772 68.824 249.772C76.4998 249.772 82.725 251.126 82.725 252.794Z" fill="#D39E00"/>
<path fill-rule="evenodd" clip-rule="evenodd" d="M116.738 252.794C116.738 254.463 110.513 255.817 102.837 255.817C95.1587 255.817 88.9365 254.463 88.9365 252.794C88.9365 251.126 95.1587 249.772 102.837 249.772C110.513 249.772 116.738 251.126 116.738 252.794Z" fill="#D39E00"/>
<path fill-rule="evenodd" clip-rule="evenodd" d="M54.9235 252.794H82.7249V248.79H54.9235V252.794Z" fill="#D39E00"/>
<path fill-rule="evenodd" clip-rule="evenodd" d="M88.9365 252.794H116.738V248.79H88.9365V252.794Z" fill="#D39E00"/>
<path fill-rule="evenodd" clip-rule="evenodd" d="M82.725 248.789C82.725 250.46 76.4998 251.814 68.824 251.814C61.1457 251.814 54.9235 250.46 54.9235 248.789C54.9235 247.121 61.1457 245.768 68.824 245.768C76.4998 245.768 82.725 247.121 82.725 248.789Z" fill="#FFCC33"/>
<path fill-rule="evenodd" clip-rule="evenodd" d="M116.738 248.789C116.738 250.46 110.513 251.814 102.837 251.814C95.1587 251.814 88.9365 250.46 88.9365 248.789C88.9365 247.121 95.1587 245.768 102.837 245.768C110.513 245.768 116.738 247.121 116.738 248.789Z" fill="#FFCC33"/>
<path fill-rule="evenodd" clip-rule="evenodd" d="M82.725 246.712C82.725 248.381 76.4998 249.735 68.824 249.735C61.1457 249.735 54.9235 248.381 54.9235 246.712C54.9235 245.045 61.1457 243.69 68.824 243.69C76.4998 243.69 82.725 245.045 82.725 246.712Z" fill="#D39E00"/>
<path fill-rule="evenodd" clip-rule="evenodd" d="M54.9235 246.713H82.7249V242.708H54.9235V246.713Z" fill="#D39E00"/>
<path fill-rule="evenodd" clip-rule="evenodd" d="M82.725 242.708C82.725 244.379 76.4998 245.733 68.824 245.733C61.1457 245.733 54.9235 244.379 54.9235 242.708C54.9235 241.04 61.1457 239.687 68.824 239.687C76.4998 239.687 82.725 241.04 82.725 242.708Z" fill="#FFCC33"/>
<path fill-rule="evenodd" clip-rule="evenodd" d="M82.7249 240.631C82.7249 242.3 76.4997 243.654 68.8239 243.654C61.1456 243.654 54.9235 242.3 54.9235 240.631C54.9235 238.963 61.1456 237.609 68.8239 237.609C76.4997 237.609 82.7249 238.963 82.7249 240.631Z" fill="#D39E00"/>
<path fill-rule="evenodd" clip-rule="evenodd" d="M54.9235 240.631H82.7249V236.627H54.9235V240.631Z" fill="#D39E00"/>
<path fill-rule="evenodd" clip-rule="evenodd" d="M82.7249 236.626C82.7249 238.297 76.4997 239.651 68.8239 239.651C61.1456 239.651 54.9235 238.297 54.9235 236.626C54.9235 234.959 61.1456 233.605 68.8239 233.605C76.4997 233.605 82.7249 234.959 82.7249 236.626Z" fill="#FFCC33"/>
<path fill-rule="evenodd" clip-rule="evenodd" d="M82.7249 234.55C82.7249 236.219 76.4997 237.573 68.8239 237.573C61.1456 237.573 54.9235 236.219 54.9235 234.55C54.9235 232.882 61.1456 231.528 68.8239 231.528C76.4997 231.528 82.7249 232.882 82.7249 234.55Z" fill="#D39E00"/>
<path fill-rule="evenodd" clip-rule="evenodd" d="M54.9235 234.549H82.7249V230.545H54.9235V234.549Z" fill="#D39E00"/>
<path fill-rule="evenodd" clip-rule="evenodd" d="M82.7249 230.545C82.7249 232.216 76.4997 233.57 68.8239 233.57C61.1456 233.57 54.9235 232.216 54.9235 230.545C54.9235 228.878 61.1456 227.524 68.8239 227.524C76.4997 227.524 82.7249 228.878 82.7249 230.545Z" fill="#FFCC33"/>
<path fill-rule="evenodd" clip-rule="evenodd" d="M82.7249 228.468C82.7249 230.138 76.4997 231.491 68.8239 231.491C61.1456 231.491 54.9235 230.138 54.9235 228.468C54.9235 226.801 61.1456 225.446 68.8239 225.446C76.4997 225.446 82.7249 226.801 82.7249 228.468Z" fill="#D39E00"/>
<path fill-rule="evenodd" clip-rule="evenodd" d="M54.9235 228.468H82.7249V224.464H54.9235V228.468Z" fill="#D39E00"/>
<path fill-rule="evenodd" clip-rule="evenodd" d="M82.7249 224.464C82.7249 226.135 76.4997 227.489 68.8239 227.489C61.1456 227.489 54.9235 226.135 54.9235 224.464C54.9235 222.796 61.1456 221.442 68.8239 221.442C76.4997 221.442 82.7249 222.796 82.7249 224.464Z" fill="#FFCC33"/>
<path fill-rule="evenodd" clip-rule="evenodd" d="M82.725 222.387C82.725 224.056 76.4998 225.41 68.824 225.41C61.1457 225.41 54.9235 224.056 54.9235 222.387C54.9235 220.719 61.1457 219.365 68.824 219.365C76.4998 219.365 82.725 220.719 82.725 222.387Z" fill="#D39E00"/>
<path fill-rule="evenodd" clip-rule="evenodd" d="M54.9235 222.387H82.7249V218.383H54.9235V222.387Z" fill="#D39E00"/>
<path fill-rule="evenodd" clip-rule="evenodd" d="M82.725 218.382C82.725 220.053 76.4998 221.407 68.824 221.407C61.1457 221.407 54.9235 220.053 54.9235 218.382C54.9235 216.714 61.1457 215.361 68.824 215.361C76.4998 215.361 82.725 216.714 82.725 218.382Z" fill="#FFCC33"/>
<path fill-rule="evenodd" clip-rule="evenodd" d="M268.823 171.746L289.073 172.026C288.918 182.85 279.825 191.672 268.823 191.672L268.705 191.671L268.823 171.746Z" fill="#34466B"/>
<path fill-rule="evenodd" clip-rule="evenodd" d="M265.395 168.856L265.111 188.779C254.11 188.627 245.143 179.681 245.143 168.856C245.143 157.925 254.286 148.93 265.395 148.93C276.505 148.93 285.647 157.925 285.647 168.856H265.395Z" fill="#EC0000"/>
<path fill-rule="evenodd" clip-rule="evenodd" d="M151.491 191.462H160.652V166.612H151.491V191.462Z" fill="#EC0000"/>
<path fill-rule="evenodd" clip-rule="evenodd" d="M190.362 191.462H199.522V166.612H190.362V191.462Z" fill="#EC0000"/>
<path fill-rule="evenodd" clip-rule="evenodd" d="M203.319 191.462H212.48V152.02H203.319V191.462Z" fill="#EC0000"/>
<path fill-rule="evenodd" clip-rule="evenodd" d="M139.637 192.003H148.797V183.639H139.637V192.003Z" fill="#EC0000"/>
<path fill-rule="evenodd" clip-rule="evenodd" d="M164.448 191.462H173.608V177.834H164.448V191.462Z" fill="#EC0000"/>
<path fill-rule="evenodd" clip-rule="evenodd" d="M177.405 191.462H186.566V174.706H177.405V191.462Z" fill="#EC0000"/>
<path fill-rule="evenodd" clip-rule="evenodd" d="M167.785 157.964L193.329 140.821L167.785 157.964Z" fill="#EC0000"/>
<path fill-rule="evenodd" clip-rule="evenodd" d="M165.821 157.964C165.821 156.876 166.7 155.994 167.785 155.994C168.87 155.994 169.749 156.876 169.749 157.964C169.749 159.052 168.87 159.934 167.785 159.934C166.7 159.934 165.821 159.052 165.821 157.964Z" fill="#EC0000"/>
<path fill-rule="evenodd" clip-rule="evenodd" d="M198.157 138.115L193.012 146.319L188.501 138.482L198.157 138.115Z" fill="#EC0000"/>
</svg>
